<?xml version="1.0" standalone="no"?>
<!DOCTYPE svg PUBLIC "-//W3C//DTD SVG 20010904//EN"
 "http://www.w3.org/TR/2001/REC-SVG-20010904/DTD/svg10.dtd">
<svg version="1.0" xmlns="http://www.w3.org/2000/svg"
 width="700.000000pt" height="700.000000pt" viewBox="0 0 700.000000 700.000000"
 preserveAspectRatio="xMidYMid meet">
<metadata>
Created by potrace 1.14, written by Peter Selinger 2001-2017
</metadata>
<g transform="translate(0.000000,700.000000) scale(0.100000,-0.100000)"
fill="#000000" stroke="none">
<path d="M785 6984 c-101 -24 -200 -81 -281 -162 -41 -40 -74 -79 -74 -87 0
-8 -3 -15 -8 -15 -11 0 -60 -109 -77 -175 -12 -46 -14 -93 -11 -200 3 -77 7
-151 10 -165 2 -14 7 -52 11 -85 4 -32 9 -68 11 -80 2 -11 9 -47 15 -80 55
-303 207 -651 371 -848 l40 -47 -39 -68 c-139 -238 -273 -574 -367 -917 -24
-90 -64 -258 -72 -305 -3 -14 -13 -72 -24 -130 -10 -58 -24 -143 -30 -190 -6
-47 -13 -101 -16 -120 -2 -19 -7 -62 -10 -95 -3 -33 -7 -76 -9 -95 -27 -220
-24 -926 4 -978 5 -10 17 -24 28 -33 39 -35 66 -31 225 26 84 30 155 55 159
55 3 0 6 -17 7 -38 2 -20 5 -50 7 -67 2 -16 7 -59 10 -95 4 -36 9 -67 10 -70
2 -3 7 -33 10 -65 4 -33 9 -62 10 -65 2 -3 6 -26 9 -50 7 -46 39 -204 57 -275
5 -22 12 -49 14 -60 2 -11 11 -46 19 -77 9 -32 22 -82 30 -110 56 -212 167
-504 203 -537 37 -33 107 -25 141 16 14 15 45 52 71 82 75 87 98 114 124 145
l25 28 51 -76 c65 -96 190 -252 278 -346 98 -105 252 -255 292 -285 40 -29 86
-32 119 -9 13 9 77 87 143 175 l120 159 30 -57 c96 -184 282 -352 476 -433
167 -70 222 -77 578 -79 333 -1 394 4 530 43 72 21 231 95 266 124 8 6 41 34
75 60 97 80 201 208 243 302 l18 40 19 -23 c11 -12 27 -32 35 -43 8 -12 51
-72 97 -133 151 -201 162 -201 362 -7 182 176 333 353 442 514 27 41 54 70 58
66 4 -5 25 -29 46 -55 22 -25 62 -72 89 -104 102 -120 98 -117 145 -122 67 -7
90 16 138 139 66 171 169 507 196 638 74 361 78 383 92 495 3 22 7 50 9 63 2
13 7 53 11 90 9 87 9 90 16 97 3 3 71 -19 151 -48 96 -36 157 -53 178 -50 33
3 64 24 80 55 28 52 31 756 4 978 -2 19 -7 64 -10 100 -30 305 -86 607 -167
890 -49 175 -132 413 -150 434 -4 6 -8 16 -8 23 0 20 -118 271 -177 376 l-54
98 39 47 c193 231 360 655 397 1007 4 33 9 71 11 85 2 14 7 86 11 160 5 120 3
144 -16 215 -70 254 -278 424 -540 441 -81 6 -101 3 -249 -31 -12 -3 -62 -19
-110 -36 -48 -16 -91 -31 -97 -33 -43 -13 -255 -106 -319 -140 -230 -123 -414
-244 -608 -404 l-77 -63 -113 30 c-108 29 -220 54 -290 66 -18 3 -55 10 -83
15 -27 5 -74 12 -104 15 -30 4 -62 8 -71 10 -102 20 -684 28 -865 12 -216 -19
-457 -62 -662 -118 l-113 -31 -71 58 c-196 163 -431 317 -656 428 -110 55
-292 133 -327 141 -6 1 -18 5 -26 8 -14 6 -64 21 -175 53 -72 22 -237 25 -310
8z"/>
</g>
</svg>
