<svg id="Capa_1" enable-background="new 0 0 497 497" height="512" viewBox="0 0 497 497" width="512" xmlns="http://www.w3.org/2000/svg"><g><path d="m497 248.501c0 80.944-38.701 152.85-98.609 198.222-41.667 31.557-93.163 43.521-149.461 43.521-137.243 0-234.574-107.818-234.574-245.06 0-77.199 20.847-142.858 76.075-188.437 42.955-35.451 98.025-56.746 158.069-56.746 137.243 0 248.5 111.257 248.5 248.5z" fill="#ffd764"/><path d="m197.675 201.246c-3.91 11.801-2.946 17.05.511 30.103 8.893 33.586 37.651 55.417 71.754 48.779 36.447-7.094 59.941-42.592 52.373-78.821-.517-2.473-1.167-4.883-1.939-7.226-.541-1.644-2.079-2.755-3.809-2.755h-101.695l-13.389 7.175c-1.727 0-3.263 1.106-3.806 2.745z" fill="#fcf7ed"/><path d="m268.59 280.379c-33.64 5.83-66.77-15.24-75.54-48.39-3.46-13.05-2.79-26.12 1.12-37.92.54-1.64 2.08-2.74 3.8-2.74h16.9c-2.71 11.52-2.85 23.96.18 36.38 6.83 28.05 28.43 48.14 53.54 52.67z" fill="#f7e5c1"/><path d="m416.72 431.399c-44.25 40.72-103.33 65.6-168.22 65.6-137.24 0-248.5-111.26-248.5-248.5 0-90.33 48.2-169.4 120.28-212.9-49.36 45.41-80.28 110.55-80.28 182.9 0 137.24 111.26 248.5 248.5 248.5 46.91 0 90.79-13 128.22-35.6z" fill="#ffaa4d"/><path d="m315.622 84.657c-7.144-4.222-16.33-1.851-20.546 5.281-7.516 12.716-21.906 19.706-36.548 17.753l-42.174-5.626c-.712-.09-1.548-.158-2.283-.169-10.787-.166-19.666 8.444-19.832 19.231-.029 1.886.21 3.713.682 5.446 2.229 8.179 15.808 10.939 24.709 11.076 0 0 30.029-2.976 55.404-2.553 14.449.241 20.028 1.242 27.319-11.234l12-18.383c4.218-7.133 8.401-16.607 1.269-20.822z" fill="#b36d3c"/><path d="m320.9 105.199-10.02 17.16c-7.3 12.48-20.75 20.05-35.2 19.81-25.37-.42-62.21-1.21-62.21-1.21-8.91-.14-16.32-6.21-18.54-14.39 17.5.37 61.14 1.28 80.98 1.6l.44.01c9.2 0 17.79-4.94 22.44-12.88l17.67-30.1c6.47 4.41 8.49 13.16 4.44 20z" fill="#995e34"/><path d="m366.681 84.657c7.144-4.222 16.33-1.851 20.546 5.281 7.516 12.716 21.906 19.706 36.548 17.753l42.174-5.626c.712-.09 1.548-.158 2.283-.169 10.787-.166 19.666 8.444 19.832 19.231.031 1.988-.237 3.911-.761 5.727-2.321 8.037-17.849 10.659-26.648 10.795 0 0-25.178-.806-50.553-.383-14.449.241-25.517-2.588-32.809-15.064l-10.34-16.468c-4.044-6.842-7.583-16.117-1.115-20.538.272-.189.554-.368.843-.539z" fill="#b36d3c"/><path d="m487.29 126.849c-2.31 8.04-9.65 13.97-18.46 14.11 0 0-36.83.79-62.21 1.21-14.45.24-27.9-7.33-35.19-19.81l-10.03-17.16c-4.04-6.84-2.03-15.59 4.44-20l17.67 30.1c4.65 7.94 13.25 12.88 22.44 12.88l.44-.01c20.38-.33 64.81-1.06 80.9-1.32z" fill="#995e34"/><g><path d="m387.868 353.907c-2.773 0-5.438-1.544-6.741-4.202-7.648-15.611-22.592-24.931-39.976-24.931s-32.328 9.32-39.975 24.931c-1.823 3.721-6.317 5.257-10.035 3.436-3.72-1.822-5.258-6.315-3.436-10.035 10.072-20.56 30.551-33.332 53.446-33.332s43.374 12.772 53.447 33.332c1.822 3.72.284 8.213-3.436 10.035-1.062.52-2.186.766-3.294.766z" fill="#ffaa4d"/></g><g><path d="m325.396 395.987c-3.127 0-6.045-1.971-7.103-5.097-1.328-3.924.776-8.181 4.699-9.509 5.219-1.767 10.697-2.662 16.284-2.662h3.751c5.585 0 11.064.896 16.283 2.661 3.924 1.328 6.028 5.585 4.701 9.508-1.328 3.924-5.586 6.028-9.508 4.701-3.667-1.241-7.528-1.87-11.475-1.87h-3.751c-3.948 0-7.808.629-11.474 1.87-.798.27-1.609.398-2.407.398z" fill="#ffaa4d"/></g><path d="m308.623 239.561c1.278 6.118.415 12.186-2.08 17.424-3.566 7.487-10.86 10.325-19.604 12.152-14.862 3.105-24.874-5.053-27.978-19.915-2.518-12.054-.883-22.329 9.326-28.037 2.378-1.33 4.996-2.326 7.805-2.912 14.861-3.105 29.426 6.426 32.531 21.288z" fill="#8c818f"/><path d="m307.15 255.609c-3.34 8.15-10.54 14.55-19.82 16.48-14.86 3.11-29.42-6.42-32.53-21.28-2.75-13.19 4.44-26.15 16.48-31.07-2.02 4.92-2.65 10.47-1.48 16.07 3.11 14.86 17.67 24.39 32.53 21.28 1.68-.35 3.29-.84 4.82-1.48z" fill="#766d78"/><path d="m367.926 201.248c-3.91 11.801-2.946 17.05.511 30.103 8.894 33.586 37.651 55.417 71.754 48.779 36.447-7.094 59.941-42.592 52.373-78.821-.517-2.473-1.167-4.883-1.939-7.227-.541-1.644-2.079-2.755-3.809-2.755h-101.695l-13.389 7.175c-1.727.001-3.263 1.107-3.806 2.746z" fill="#fcf7ed"/><path d="m438.841 280.381c-33.64 5.83-66.77-15.24-75.54-48.39-3.46-13.05-2.79-26.12 1.12-37.92.54-1.64 2.08-2.74 3.8-2.74h16.9c-2.71 11.52-2.85 23.96.18 36.38 6.83 28.05 28.43 48.14 53.54 52.67z" fill="#f7e5c1"/><path d="m478.874 239.563c1.278 6.118.415 12.186-2.08 17.424-3.566 7.487-10.86 10.325-19.604 12.152-14.862 3.105-24.874-5.053-27.978-19.915-2.518-12.054-.883-22.329 9.326-28.037 2.378-1.33 4.996-2.326 7.805-2.912 14.861-3.105 29.426 6.426 32.531 21.288z" fill="#8c818f"/><path d="m477.401 255.611c-3.34 8.15-10.54 14.55-19.82 16.48-14.86 3.11-29.42-6.42-32.53-21.28-2.75-13.19 4.44-26.15 16.48-31.07-2.02 4.92-2.65 10.47-1.48 16.07 3.11 14.86 17.67 24.39 32.53 21.28 1.68-.35 3.29-.84 4.82-1.48z" fill="#766d78"/></g></svg>