<svg id="Capa_1" enable-background="new 0 0 512.095 512.095" height="512" viewBox="0 0 512.095 512.095" width="512" xmlns="http://www.w3.org/2000/svg"><g><path d="m256.047 448.361c-41.589 0-80.092-13.204-111.552-35.644l111.6-111.6 10-45.022-10-45.111-156.674 156.674c-22.466-31.471-35.687-69.996-35.687-111.61 0-106.212 86.102-192.313 192.313-192.313h.047l10-34.687-10-29.047c-.016 0-.031-.001-.047-.001-141.411 0-256.047 114.636-256.047 256.047s114.636 256.047 256.047 256.047c.016 0 .031-.001.047-.001l10-33.047-10-30.687c-.015.001-.031.002-.047.002z" fill="#ff6c6c"/><path d="m512.095 256.047c0-141.395-114.611-256.021-256-256.047v63.734c41.596.01 80.104 13.229 111.563 35.686l-111.563 111.564v90.133l156.622-156.622c22.441 31.46 35.644 69.964 35.644 111.552 0 106.196-86.076 192.287-192.266 192.313v63.734c141.389-.026 256-114.652 256-256.047z" fill="#c83c50"/></g></svg>