<?xml version="1.0" encoding="iso-8859-1"?>
<!-- Generator: Adobe Illustrator 19.0.0, SVG Export Plug-In . SVG Version: 6.00 Build 0)  -->
<svg version="1.1" id="Capa_1" xmlns="http://www.w3.org/2000/svg" xmlns:xlink="http://www.w3.org/1999/xlink" x="0px" y="0px"
	 viewBox="0 0 512 512" style="enable-background:new 0 0 512 512;" xml:space="preserve">
<path style="fill:#EBAF4B;" d="M435.871,8.636c23.304-5.881,45.958,12.059,45.015,36.076
	c-1.171,29.815-16.004,83.038-48.067,115.103L328.611,71.64C368.69,31.56,411.022,14.908,435.871,8.636z"/>
<path style="fill:#E19C46;" d="M479.943,55.599c-3.188,25.708-14.197,61.567-34.473,89.281l-80.451-47.909
	c26.008-36.413,56.813-54.875,75.349-62.984C457.545,26.475,477.176,37.187,479.943,55.599z"/>
<path style="fill:#EBAF4B;" d="M76.598,8.636c-23.305-5.881-45.957,12.06-45.014,36.076c1.171,29.815,16.004,83.038,48.067,115.103
	L183.858,71.64C143.778,31.56,101.446,14.908,76.598,8.636z"/>
<path style="fill:#E19C46;" d="M32.525,55.599c3.188,25.708,14.197,61.567,34.473,89.281l80.451-47.909
	c-26.009-36.412-56.813-54.874-75.349-62.983C54.923,26.475,35.292,37.187,32.525,55.599z"/>
<path style="fill:#FFC850;" d="M256.002,47.591c-264.526,0-232.463,304.606-232.463,304.606l30.394-11.19
	c0,0,1.67,56.613,25.717,115.397l23.046-27.053c17.034,32.064,49.098,59.118,49.098,59.118l24.047-32.063h160.32l24.047,32.063
	c0,0,32.064-27.053,49.098-59.118l23.045,27.053c24.047-58.784,25.717-115.397,25.717-115.397l30.394,11.19
	C488.464,352.198,520.528,47.591,256.002,47.591z"/>
<g>
	<path style="fill:#EBAF4B;" d="M95.682,231.958c0-66.957,28.3-127.499,73.927-171.1C-0.946,119.432,23.539,352.198,23.539,352.198
		l30.394-11.19c0,0,1.67,56.613,25.717,115.397l23.046-27.053c17.034,32.064,49.098,59.118,49.098,59.118l24.047-32.063h79.121
		C161.813,421.704,95.682,334.33,95.682,231.958z"/>
	<path style="fill:#EBAF4B;" d="M348.113,472.34l12.097,16.129c0,0,8.476-7.17,19.013-18.459
		C369.038,471.402,358.654,472.181,348.113,472.34z"/>
</g>
<path style="fill:#F5DCB4;" d="M42.769,193.746c-27.585,78.146-19.231,158.452-19.231,158.452l30.394-11.19
	c0,0,1.67,56.613,25.717,115.397l23.046-27.053c17.034,32.064,49.098,59.118,49.098,59.118l24.047-32.063
	C124.808,412.663,14.147,329.118,42.769,193.746z"/>
<path style="fill:#FAEBC8;" d="M469.265,193.746c27.585,78.146,19.231,158.452,19.231,158.452l-30.394-11.19
	c0,0-1.67,56.613-25.717,115.397l-23.046-27.053c-17.034,32.064-49.098,59.118-49.098,59.118l-24.047-32.063
	C387.226,412.663,497.888,329.118,469.265,193.746z"/>
<path style="fill:#F5DCB4;" d="M256.002,432.357l-79.323,18.397c4.961,30.48,31.409,53.747,63.292,53.747h32.063
	c31.75,0,58.112-23.075,63.229-53.37L256.002,432.357z"/>
<path style="fill:#4B3F4E;" d="M155.802,304.102L155.802,304.102c-15.431,0-28.055-12.625-28.055-28.055v-16.032
	c0-15.431,12.625-28.055,28.055-28.055l0,0c15.431,0,28.055,12.625,28.055,28.055v16.032
	C183.858,291.477,171.232,304.102,155.802,304.102z"/>
<path style="fill:#5D5360;" d="M155.802,231.958c-1.372,0-2.688,0.214-4.008,0.407v39.673c0,8.854,7.178,16.032,16.032,16.032
	c8.855,0,16.032-7.178,16.032-16.032v-12.024C183.858,244.584,171.232,231.958,155.802,231.958z"/>
<circle style="fill:#FFFFFF;" cx="155.798" cy="251.995" r="12.02"/>
<path style="fill:#4B3F4E;" d="M356.201,304.102L356.201,304.102c-15.431,0-28.055-12.625-28.055-28.055v-16.032
	c0-15.431,12.625-28.055,28.055-28.055l0,0c15.431,0,28.055,12.625,28.055,28.055v16.032
	C384.257,291.477,371.631,304.102,356.201,304.102z"/>
<path style="fill:#5D5360;" d="M356.201,231.958c-1.372,0-2.688,0.214-4.008,0.407v39.673c0,8.854,7.178,16.032,16.032,16.032
	c8.855,0,16.032-7.178,16.032-16.032v-12.024C384.257,244.584,371.631,231.958,356.201,231.958z"/>
<circle style="fill:#FFFFFF;" cx="356.204" cy="251.995" r="12.02"/>
<path style="fill:#FAEBC8;" d="M308.106,360.214c-22.304,0-41.726,9.74-52.104,24.169c-10.377-14.43-29.8-24.169-52.104-24.169
	c-33.203,0-60.12,21.534-60.12,48.096c0,26.562,26.916,48.096,60.12,48.096c22.304,0,41.726-9.74,52.104-24.169
	c10.377,14.43,29.8,24.169,52.104,24.169c33.203,0,60.12-21.534,60.12-48.096C368.225,381.747,341.309,360.214,308.106,360.214z"/>
<path style="fill:#FF8087;" d="M204.435,377.839l20.302,16.927c18.11,15.099,44.422,15.099,62.532,0l20.301-16.926
	c8.994-7.499,3.75-22.139-7.96-22.139c-25.928,0-61.287,0-87.215-0.001C200.685,355.701,195.441,370.342,204.435,377.839z"/>
<path style="fill:#E6646E;" d="M256.8,401.107l-20.302-24.664c-4.615-5.607-5.462-13.943-3.629-20.741c-7.202,0-14.127,0-20.476,0
	c-11.71,0-16.954,14.64-7.96,22.139l20.302,16.926c10.428,8.695,23.563,12.214,36.299,10.895
	C259.587,404.253,258.164,402.764,256.8,401.107z"/>
<path d="M299.61,348.202h-87.216c-8.513,0-15.886,5.169-18.783,13.168c-2.908,8.03-0.545,16.756,6.021,22.23l0,0l20.303,16.926
	c10.451,8.714,23.258,13.069,36.068,13.069c12.808,0,25.619-4.357,36.068-13.069l20.301-16.925c6.565-5.474,8.929-14.2,6.021-22.23
	C315.494,353.371,308.123,348.202,299.61,348.202z M302.766,372.081l-20.301,16.925c-15.334,12.785-37.593,12.785-52.927,0
	l-20.303-16.926l0,0c-2.53-2.11-1.805-4.821-1.522-5.602c0.357-0.985,1.527-3.277,4.68-3.277h87.216
	c3.152,0,4.322,2.292,4.679,3.277C304.651,367.479,305.228,370.028,302.766,372.081z"/>
<path d="M493.638,265.755c-4.468-34.982-15.022-81.172-39.509-122.402c25.758-29.44,32.648-69.382,33.784-98.346
	c0.538-13.701-5.28-26.527-15.964-35.192c-10.841-8.791-24.833-11.87-38.38-8.45c-32.683,8.249-64.121,25.358-93.508,50.824
	C314.807,44.15,286.756,40.091,256,40.091s-58.808,4.059-84.061,12.098C142.552,26.723,111.115,9.613,78.43,1.364
	c-13.546-3.42-27.539-0.341-38.38,8.45c-10.684,8.665-16.502,21.492-15.964,35.191c1.136,28.964,8.026,68.906,33.784,98.346
	c-24.487,41.23-35.041,87.42-39.509,122.402c-6.215,48.655-2.448,85.675-2.285,87.227c0.242,2.301,1.532,4.361,3.497,5.583
	c1.964,1.222,4.382,1.469,6.553,0.67l20.958-7.715c1.623,19.229,7.157,62.588,25.622,107.725c0.991,2.422,3.173,4.153,5.757,4.566
	c2.582,0.415,5.197-0.55,6.894-2.542l16.177-18.99c17.971,28.589,44.198,50.89,45.421,51.922c1.577,1.331,3.628,1.956,5.685,1.72
	c2.05-0.233,3.914-1.301,5.152-2.952l17.063-22.75c4.287,9.336,10.57,17.735,18.488,24.529C206.306,505.873,222.864,512,239.968,512
	h32.063c28.679,0,53.753-16.757,65.144-41.741l17.032,22.708c1.238,1.651,3.103,2.719,5.152,2.952
	c0.283,0.032,0.566,0.048,0.848,0.048c1.762,0,3.477-0.621,4.837-1.768c1.223-1.032,27.45-23.333,45.421-51.922l16.177,18.99
	c1.696,1.993,4.312,2.958,6.894,2.542c2.584-0.413,4.766-2.144,5.757-4.566c18.466-45.136,24-88.495,25.622-107.725l20.958,7.715
	c2.169,0.8,4.589,0.552,6.553-0.67c1.965-1.222,3.255-3.282,3.497-5.583C496.087,351.431,499.852,314.41,493.638,265.755z
	 M437.24,15.908c8.925-2.252,18.132-0.227,25.261,5.556c0.234,0.19,0.455,0.39,0.682,0.586c-4.267-0.568-9.333-0.46-15.327,0.789
	c-8.456,1.762-19.649,6.685-30.708,13.506c-3.526,2.174-4.621,6.795-2.447,10.321c2.175,3.525,6.797,4.62,10.32,2.447
	c9.496-5.856,19.177-10.189,25.895-11.589c7.545-1.571,13.718-0.79,17.394,2.198c3.549,2.886,4.294,7.428,4.294,10.73
	c0,0.002,0,0.004,0,0.006c-1.643,24.622-7.951,55.81-26.958,79.666c-5.045-7.303-10.567-14.39-16.649-21.146
	c-11.164-12.401-23.592-23.129-37.234-32.199c2.424-2.652,4.938-5.244,7.545-7.734c2.995-2.86,3.105-7.608,0.244-10.604
	c-2.859-2.996-7.607-3.105-10.604-0.245c-3.56,3.399-6.985,6.962-10.224,10.63c-7.16-3.995-14.618-7.578-22.374-10.743
	C382.055,37.165,409.214,22.981,437.24,15.908z M74.764,15.908c28.025,7.073,55.185,21.257,80.889,42.177
	c-7.759,3.166-15.22,6.75-22.382,10.748C110.759,43.393,81.9,26.538,64.146,22.84c-5.993-1.249-11.059-1.357-15.326-0.789
	c0.227-0.196,0.447-0.396,0.681-0.586C56.632,15.682,65.84,13.657,74.764,15.908z M39.4,50.458c0-0.002,0-0.004,0-0.006
	c0-3.302,0.745-7.844,4.294-10.73c3.676-2.989,9.852-3.771,17.394-2.198c20.871,4.348,45.322,24.532,59.117,39.281
	c-13.627,9.066-26.043,19.786-37.197,32.174c-6.082,6.756-11.603,13.842-16.649,21.146C47.351,106.268,41.043,75.081,39.4,50.458z
	 M272.033,497.001H239.97c-23.879,0-44.523-14.616-52.793-36.057c6.406,1.916,13.18,2.961,20.195,2.961
	c16.226,0,31.507-5.376,44.194-15.549c2.611-2.093,6.259-2.095,8.872,0c12.687,10.172,27.968,15.548,44.193,15.548
	c7.012,0,13.784-1.044,20.188-2.959C316.535,482.374,295.862,497.001,272.033,497.001z M481.683,341.709l-21.022-7.739
	c-2.263-0.833-4.788-0.526-6.787,0.824c-1.999,1.35-3.228,3.58-3.301,5.99c-0.016,0.516-1.694,48.698-20.688,101.16l-14.871-17.457
	c-1.61-1.892-4.052-2.864-6.522-2.592c-2.469,0.269-4.645,1.743-5.81,3.937c-11.828,22.265-31.588,42.338-41.405,51.562
	l-18.529-24.703c19.803-12.729,32.974-35.043,32.974-60.414c0-4.142-3.357-7.5-7.5-7.5s-7.5,3.358-7.5,7.5
	c0,31.224-25.163,56.628-56.094,56.628c-12.777,0-24.814-4.236-34.81-12.251c-8.138-6.526-19.504-6.524-27.639,0
	c-9.996,8.015-22.034,12.251-34.811,12.251c-30.93,0-56.094-25.403-56.094-56.628c0-4.142-3.357-7.5-7.5-7.5
	c-4.143,0-7.5,3.358-7.5,7.5c0,25.37,13.171,47.685,32.974,60.414l-18.531,24.706c-9.811-9.209-29.548-29.252-41.402-51.566
	c-1.165-2.194-3.341-3.668-5.81-3.937c-2.473-0.271-4.912,0.702-6.522,2.592l-14.871,17.457
	c-18.992-52.46-20.671-100.642-20.686-101.155c-0.071-2.412-1.299-4.642-3.298-5.993c-1.999-1.351-4.523-1.659-6.79-0.824
	l-21.026,7.74c-0.718-13.907-1.236-41.453,2.928-74.055c5.499-43.051,20.53-103.785,60.911-148.64
	c38.187-42.417,92.64-63.925,161.848-63.925c69.179,0,123.615,21.49,161.8,63.872c40.326,44.76,55.382,105.354,60.909,148.304
	C482.92,299.974,482.401,327.728,481.683,341.709z"/>
<path d="M177.936,241.211c-3.741,1.778-5.333,6.252-3.556,9.993c1.312,2.759,1.977,5.723,1.977,8.81v16.033
	c0,11.334-9.222,20.556-20.556,20.556c-11.335,0-20.557-9.222-20.557-20.556v-16.033c0-11.334,9.222-20.556,20.557-20.556
	c4.143,0,7.5-3.358,7.5-7.5s-3.357-7.5-7.5-7.5c-19.606,0-35.556,15.95-35.556,35.555v16.033c0,19.606,15.95,35.555,35.556,35.555
	c19.605,0,35.555-15.95,35.555-35.555v-16.033c0-5.331-1.153-10.461-3.428-15.248C186.151,241.025,181.677,239.433,177.936,241.211z
	"/>
<path d="M391.757,276.047v-16.033c0-5.331-1.153-10.461-3.428-15.248c-1.778-3.741-6.252-5.333-9.993-3.555
	c-3.741,1.778-5.333,6.252-3.556,9.993c1.312,2.759,1.977,5.723,1.977,8.81v16.033c0,11.334-9.222,20.556-20.557,20.556
	c-11.334,0-20.556-9.222-20.556-20.556v-16.033c0-11.334,9.222-20.556,20.556-20.556c4.143,0,7.5-3.358,7.5-7.5s-3.357-7.5-7.5-7.5
	c-19.605,0-35.555,15.95-35.555,35.555v16.033c0,19.606,15.95,35.555,35.555,35.555
	C375.806,311.602,391.757,295.652,391.757,276.047z"/>
<path d="M131.1,345.49c-4.409-2.205-8.728-4.729-12.838-7.503c-3.432-2.317-8.095-1.415-10.412,2.019
	c-2.318,3.433-1.414,8.095,2.02,10.413c4.647,3.138,9.533,5.994,14.521,8.488c1.077,0.539,2.222,0.793,3.349,0.793
	c2.751,0,5.4-1.52,6.714-4.147C136.306,351.847,134.804,347.342,131.1,345.49z"/>
<path d="M70.73,277.671c-1.314-3.922-5.554-6.04-9.483-4.732c-3.929,1.31-6.053,5.557-4.743,9.487
	c0.288,0.865,7.271,21.434,25.446,42.844c1.483,1.748,3.596,2.646,5.722,2.646c1.715,0,3.439-0.585,4.85-1.782
	c3.158-2.681,3.545-7.414,0.864-10.572C77.211,296.508,70.811,277.91,70.73,277.671z"/>
<path d="M385.723,337.986c-4.112,2.776-8.431,5.3-12.837,7.503c-3.704,1.852-5.206,6.357-3.354,10.062
	c1.313,2.628,3.963,4.147,6.714,4.147c1.127,0,2.271-0.255,3.349-0.793c4.986-2.493,9.871-5.349,14.521-8.488
	c3.434-2.318,4.338-6.979,2.02-10.413C393.817,336.573,389.155,335.668,385.723,337.986z"/>
<path d="M442.741,272.939c-3.932-1.31-8.178,0.814-9.487,4.743c-0.062,0.185-6.334,18.658-22.652,37.88
	c-2.681,3.158-2.294,7.891,0.864,10.571c1.41,1.197,3.135,1.782,4.85,1.782c2.126,0,4.238-0.899,5.722-2.646
	c18.175-21.41,25.157-41.978,25.446-42.843C448.794,278.497,446.671,274.25,442.741,272.939z"/>
<path d="M151.802,132.431c1.382,0,2.78-0.382,4.031-1.181c4.883-3.12,10.043-6.041,15.338-8.682
	c3.707-1.849,5.213-6.353,3.363-10.06c-1.848-3.706-6.351-5.21-10.059-3.363c-5.767,2.877-11.392,6.061-16.719,9.464
	c-3.49,2.23-4.513,6.868-2.282,10.358C146.905,131.208,149.328,132.431,151.802,132.431z"/>
<path d="M315.033,139.953c-18.079-7.646-38.492-11.687-59.032-11.687s-40.953,4.041-59.032,11.687
	c-3.815,1.613-5.601,6.014-3.987,9.829c1.615,3.816,6.018,5.6,9.829,3.987c16.247-6.871,34.64-10.502,53.19-10.502
	s36.943,3.631,53.19,10.502c0.953,0.403,1.943,0.594,2.918,0.594c2.923,0,5.701-1.72,6.911-4.581
	C320.633,145.967,318.848,141.566,315.033,139.953z"/>
<path d="M340.833,122.568c5.295,2.641,10.455,5.562,15.338,8.682c1.251,0.799,2.649,1.181,4.031,1.181
	c2.474,0,4.896-1.224,6.327-3.463c2.23-3.491,1.208-8.128-2.282-10.358c-5.327-3.403-10.952-6.587-16.719-9.464
	c-3.709-1.849-8.21-0.343-10.059,3.363C335.62,116.215,337.126,120.719,340.833,122.568z"/>
<path d="M315.113,96.501c-18.935-5.517-38.822-8.314-59.112-8.314s-40.178,2.797-59.112,8.314c-3.978,1.159-6.262,5.322-5.103,9.299
	c1.158,3.977,5.322,6.261,9.298,5.103c17.572-5.12,36.048-7.716,54.917-7.716c18.869,0,37.345,2.596,54.917,7.716
	c0.7,0.204,1.406,0.301,2.101,0.301c3.249,0,6.243-2.128,7.197-5.404C321.375,101.823,319.091,97.66,315.113,96.501z"/>
<g>
</g>
<g>
</g>
<g>
</g>
<g>
</g>
<g>
</g>
<g>
</g>
<g>
</g>
<g>
</g>
<g>
</g>
<g>
</g>
<g>
</g>
<g>
</g>
<g>
</g>
<g>
</g>
<g>
</g>
</svg>
