<?xml version="1.0" encoding="iso-8859-1"?>
<!-- Generator: Adobe Illustrator 19.0.0, SVG Export Plug-In . SVG Version: 6.00 Build 0)  -->
<svg version="1.1" id="Layer_1" xmlns="http://www.w3.org/2000/svg" xmlns:xlink="http://www.w3.org/1999/xlink" x="0px" y="0px"
	 viewBox="0 0 511.999 511.999" style="enable-background:new 0 0 511.999 511.999;" xml:space="preserve">
<path style="fill:#F4B759;" d="M116.502,327.112C52.263,327.112,0,274.849,0,210.61v-27.748c0-9.912,8.035-17.947,17.947-17.947
	s17.947,8.035,17.947,17.947v27.748c0,44.448,36.16,80.608,80.608,80.608c9.912,0,17.947,8.035,17.947,17.947
	C134.45,319.077,126.414,327.112,116.502,327.112z"/>
<path style="opacity:0.2;enable-background:new    ;" d="M116.502,291.218c-11.484,0-22.405-2.431-32.302-6.777
	c-8.893,8.335-16.189,18.35-21.384,29.54c16.076,8.382,34.336,13.13,53.686,13.13c9.912,0,17.947-8.035,17.947-17.947
	C134.45,299.253,126.414,291.218,116.502,291.218z"/>
<g>
	<path style="fill:#4A5058;" d="M16.437,224.85l-14.91,4.572c0.89,5.462,2.157,10.799,3.781,15.981l15.934-4.885
		c4.326-1.326,6.758-5.909,5.432-10.235C25.345,225.954,20.762,223.523,16.437,224.85z M60.73,285.839
		c-3.188-3.213-8.376-3.232-11.587-0.044L38.125,296.73c4.066,3.705,8.397,7.123,12.957,10.229l9.605-9.533
		C63.898,294.238,63.918,289.05,60.73,285.839z M52.141,259.078c-3.285-4.351-6.135-9.044-8.496-14.016l-12.12,7.034
		c-3.913,2.271-5.245,7.286-2.973,11.199c1.521,2.619,4.268,4.081,7.093,4.081c1.396,0,2.811-0.357,4.105-1.109L52.141,259.078z"/>
	<path style="fill:#4A5058;" d="M17.947,164.914C8.035,164.914,0,172.949,0,182.861v23.531h35.894v-23.531
		C35.894,172.949,27.859,164.914,17.947,164.914z"/>
</g>
<path style="fill:#F4B759;" d="M314.28,437.046h-4.947v-82.877h-43.871v102.574c0,7.625,6.181,13.807,13.807,13.807h52.89
	c4.314,0,7.812-3.498,7.812-7.812l0,0C339.971,448.548,328.469,437.046,314.28,437.046z"/>
<path style="fill:#4A5058;" d="M280.043,422.275h-14.581v16.387h14.581c4.525,0,8.193-3.668,8.193-8.193
	S284.568,422.275,280.043,422.275z M295.61,398.645c-4.525,0-8.193,3.668-8.193,8.193s3.668,8.193,8.193,8.193h13.723v-16.387
	H295.61z"/>
<path style="opacity:0.1;enable-background:new    ;" d="M314.28,437.046h-4.947v-82.877h-43.871v102.574
	c0,7.625,6.181,13.807,13.807,13.807h52.89c4.314,0,7.812-3.498,7.812-7.812l0,0C339.971,448.548,328.469,437.046,314.28,437.046z"
	/>
<path style="fill:#F4B759;" d="M165.327,258.613c-52.775,0-95.556,42.782-95.556,95.556l0,0v102.574
	c0,7.625,6.181,13.807,13.807,13.807h52.89c4.314,0,7.812-3.498,7.812-7.812l0,0c0-14.189-11.503-25.692-25.692-25.692h-4.947
	v-31.704c2.576,0.394,5.214,0.6,7.901,0.6h129.128c34.977,0,63.332-28.355,63.332-63.331v-83.997L165.327,258.613L165.327,258.613z"
	/>
<path style="fill:#4A5058;" d="M109.283,316.868c0,4.525,3.668,8.193,8.193,8.193c4.525,0,8.193-3.668,8.193-8.193v-50.193
	c-5.797,2.648-11.282,5.861-16.387,9.564V316.868z M92.949,412.378c-4.525,0-8.193,3.668-8.193,8.193
	c0,4.525,3.668,8.193,8.193,8.193h20.692l0,0v-16.387l0,0H92.949z M92.871,398.228c0-4.525-3.668-8.193-8.193-8.193H69.771v16.387
	h14.907C89.203,406.421,92.871,402.753,92.871,398.228z M101.142,359.043c0-4.525-3.668-8.193-8.193-8.193H69.814
	c-0.026,0.925-0.044,1.853-0.044,2.785l0,0v13.602h23.179C97.474,367.237,101.142,363.568,101.142,359.043z M225.739,258.078v73.665
	c0,4.525,3.668,8.193,8.193,8.193c4.525,0,8.193-3.668,8.193-8.193v-73.665H225.739z M144.28,317.285
	c-4.525,0-8.193,3.668-8.193,8.193v16.356c0,4.525,3.668,8.193,8.193,8.193s8.193-3.668,8.193-8.193v-16.356
	C152.474,320.953,148.805,317.285,144.28,317.285z M175.151,346.38c0,4.525,3.668,8.193,8.193,8.193
	c4.525,0,8.193-3.668,8.193-8.193v-88.302h-16.387V346.38z"/>
<path style="fill:#F8ECC8;" d="M256.621,262.962v82.086c0,11.989-9.719,21.707-21.707,21.707h-65.69
	c-21.641,0-39.184,17.544-39.184,39.184l0,0h120.632c34.977,0,63.331-28.355,63.331-63.331v-79.647H256.621L256.621,262.962z"/>
<path style="fill:#F4B759;" d="M225.998,437.046h-4.947v-73.045h-43.871v92.742c0,7.625,6.181,13.807,13.807,13.807h52.89
	c4.314,0,7.812-3.498,7.812-7.812l0,0C251.691,448.548,240.188,437.046,225.998,437.046z"/>
<path style="fill:#4A5058;" d="M204.836,384.547c0-4.525-3.668-8.193-8.193-8.193h-19.461v16.387h19.461
	C201.168,392.74,204.836,389.073,204.836,384.547z M208.409,411.806c-4.525,0-8.193,3.668-8.193,8.193s3.668,8.193,8.193,8.193
	h12.643v-16.387H208.409z"/>
<path style="opacity:0.1;enable-background:new    ;" d="M165.327,258.613c-11.386,0-22.304,1.995-32.43,5.648
	c-5.25,6.213-9.976,13.111-14.009,20.785c-2,3.807,1.322,8.19,5.522,7.265c15.129-3.331,30.97-2.442,41.483,1.173
	c3.994,1.373,5.485,6.278,2.809,9.546c-12.299,15.014-14.372,25.994-12.659,35.156c0.69,3.694,4.927,5.396,7.953,3.169
	c18.064-13.29,53.965-19.552,78.914-11.247h0.044c26.217,10.229,52.05,16.062,70.941,16.094c0.067-1.191,0.108-2.387,0.108-3.594
	v-83.997H165.327V258.613z"/>
<circle style="fill:#4A5058;" cx="187.717" cy="89.416" r="47.968"/>
<circle style="fill:#EDBCB9;" cx="187.717" cy="89.416" r="21.688"/>
<circle style="fill:#4A5058;" cx="444.762" cy="89.416" r="47.968"/>
<circle style="fill:#EDBCB9;" cx="444.762" cy="89.416" r="21.688"/>
<path style="fill:#F4B759;" d="M316.238,54.056c52.936,0,135.631,37.61,175.183,127.518
	c35.317,80.284-110.687,148.081-175.183,148.081s-210.5-67.797-175.183-148.081C180.607,91.665,263.301,54.056,316.238,54.056z"/>
<g>
	<path style="fill:#4A5058;" d="M381.826,164.916c-4.525,0-8.193-3.668-8.193-8.193v-12.202c0-4.525,3.668-8.193,8.193-8.193
		c4.525,0,8.193,3.668,8.193,8.193v12.202C390.019,161.248,386.352,164.916,381.826,164.916z"/>
	<path style="fill:#4A5058;" d="M263.355,161.389c-4.525,0-8.193-3.668-8.193-8.193c0-3.625-2.95-6.574-6.574-6.574
		c-3.625,0-6.574,2.95-6.574,6.574c0,4.525-3.668,8.193-8.193,8.193s-8.193-3.668-8.193-8.193c0-12.661,10.301-22.961,22.961-22.961
		c12.662,0,22.961,10.301,22.961,22.961C271.548,157.721,267.88,161.389,263.355,161.389z"/>
</g>
<path style="fill:#F8ECC8;" d="M505.879,275.758c4.201,0.924,7.524-3.458,5.522-7.265c-41.778-79.519-157.467-76.455-169.787-76.455
	h-50.754c-12.321,0-128.009-3.064-169.787,76.455c-2,3.807,1.322,8.19,5.522,7.265c15.129-3.331,30.97-2.442,41.483,1.173
	c3.994,1.373,5.485,6.278,2.809,9.546c-12.299,15.014-14.372,25.994-12.659,35.156c0.69,3.694,4.927,5.396,7.953,3.169
	c18.064-13.29,53.965-19.552,78.914-11.246h0.044c26.289,10.256,52.196,16.097,71.099,16.097c18.904,0,44.811-5.84,71.099-16.097
	h0.044c24.949-8.305,60.85-2.044,78.914,11.246c3.026,2.226,7.263,0.524,7.953-3.169c1.713-9.162-0.362-20.143-12.659-35.156
	c-2.677-3.268-1.185-8.173,2.809-9.546C474.909,273.317,490.749,272.427,505.879,275.758z"/>
<path style="opacity:0.2;enable-background:new    ;" d="M357.254,236.044c-4.525,0-8.193,3.668-8.193,8.193
	c0,6.791-5.525,12.315-12.315,12.315c-6.791,0-12.314-5.525-12.314-12.315V219.95h-16.387v24.288
	c0,6.791-5.525,12.315-12.314,12.315s-12.314-5.525-12.314-12.315c0-4.525-3.668-8.193-8.193-8.193s-8.193,3.668-8.193,8.193
	c0,15.826,12.876,28.702,28.701,28.702c8.027,0,15.294-3.311,20.508-8.641c5.213,5.329,12.481,8.641,20.508,8.641
	c15.826,0,28.702-12.876,28.702-28.702C365.448,239.713,361.779,236.044,357.254,236.044z"/>
<path style="fill:#F7DA70;" d="M356.815,197.946l-28.558-80.993c-3.999-11.342-20.039-11.342-24.038,0l-28.558,80.993H356.815z"/>
<g>
	<path style="fill:#4A5058;" d="M355.233,206.103l-9.076,10.81c-15.612,18.594-44.225,18.594-59.838,0l-9.076-10.81
		c-4.677-5.569-0.717-14.064,6.556-14.064h64.88C355.951,192.039,359.91,200.534,355.233,206.103z"/>
	<path style="fill:#4A5058;" d="M272.092,75.351c0,4.525,3.668,8.193,8.193,8.193s8.193-3.668,8.193-8.193V57.085
		c-5.341,1.107-10.818,2.516-16.387,4.253V75.351z M448.034,145.575h23.576c-3.882-5.755-7.953-11.216-12.184-16.387h-11.392
		c-4.525,0-8.193,3.668-8.193,8.193C439.841,141.907,443.509,145.575,448.034,145.575z M192.636,137.382
		c0-4.525-3.668-8.193-8.193-8.193H173.05c-4.232,5.171-8.303,10.632-12.184,16.387h23.576
		C188.967,145.575,192.636,141.907,192.636,137.382z M195.903,167.561H147.79c-2.359,4.525-4.612,9.189-6.734,14.012
		c-0.348,0.793-0.674,1.584-0.988,2.375h55.835c4.525,0,8.193-3.668,8.193-8.193C204.097,171.23,200.428,167.561,195.903,167.561z
		 M491.42,181.573c-2.122-4.823-4.375-9.487-6.734-14.012h-48.113c-4.525,0-8.193,3.668-8.193,8.193
		c0,4.525,3.668,8.193,8.193,8.193h55.835C492.094,183.158,491.769,182.366,491.42,181.573z M343.996,75.351
		c0,4.525,3.668,8.193,8.193,8.193s8.193-3.668,8.193-8.193V61.337c-5.569-1.737-11.046-3.146-16.387-4.253V75.351z M308.044,54.346
		v29.056c0,4.525,3.668,8.193,8.193,8.193s8.193-3.668,8.193-8.193V54.346c-2.799-0.191-5.535-0.292-8.193-0.292
		C313.58,54.056,310.843,54.155,308.044,54.346z"/>
</g>
<g>
</g>
<g>
</g>
<g>
</g>
<g>
</g>
<g>
</g>
<g>
</g>
<g>
</g>
<g>
</g>
<g>
</g>
<g>
</g>
<g>
</g>
<g>
</g>
<g>
</g>
<g>
</g>
<g>
</g>
</svg>
